<mxfile host="app.diagrams.net" modified="2024-07-18T16:41:49.520Z" agent="Mozilla/5.0 (Macintosh; Intel Mac OS X 10_15_7) AppleWebKit/537.36 (KHTML, like Gecko) Chrome/126.0.0.0 Safari/537.36" version="24.6.4" etag="NxWri-QURyAJx2m0A7-e" type="github">
  <diagram name="Page-1" id="UOrH7wVti21KzHWCvlIt">
    <mxGraphModel>
      <root>
        <mxCell id="0" />
        <mxCell id="1" parent="0" />
      </root>
    </mxGraphModel>
  </diagram>
</mxfile>
